<!--?xml version="1.0" encoding="utf-8"?-->
<!-- Svg Vector Icons : http://www.onlinewebfonts.com/icon -->

<svg version="1.1" xmlns="http://www.w3.org/2000/svg" xmlns:xlink="http://www.w3.org/1999/xlink" x="0px" y="0px" viewBox="0 0 256 256" enable-background="new 0 0 256 256" xml:space="preserve">
<metadata> Svg Vector Icons : http://www.onlinewebfonts.com/icon </metadata>
<g><g><g><path fill="#FFFFFF" data-title="Layer 0" xs="0" d="M116,20.1c-26.6,2.5-50.3,19.9-60.7,44.4c-3.9,9.2-5.7,17.6-5.9,27.8l-0.1,6.2l-3.8,0.8c-8.7,1.8-15.8,5.7-22.4,12.2c-9.1,9.2-13.6,20.6-13,33.2c0.6,11.4,4.8,21,13,29.1c5.9,5.9,12.1,9.5,20.5,11.8c3.4,1,4.2,1,39.1,1.2l35.6,0.1v4.8v4.8h-2.8c-5.3,0-7.3,2-7.3,7.3v2.8h-3.3c-5,0-6.4,1.4-6.4,6.6v3H55.8H13.2l-1.6,1.6c-1.7,1.7-2,3.4-1,5.6c1.2,2.6-0.6,2.5,45.5,2.5h42.4v3c0,1.8,0.3,3.6,0.7,4.4c1.3,2.7,1.8,2.7,24,2.7c22.4,0,22.5,0,23.9-3c0.4-0.9,0.7-2.7,0.7-4.3v-2.8h47.2c33,0,47.5-0.1,48.3-0.5c1.4-0.6,2.6-2.7,2.6-4.6c0-1.1-0.5-1.9-1.6-3l-1.6-1.6h-47.5h-47.5v-2.5c0-2.8-0.8-5.2-2.1-6.2c-0.5-0.4-2.2-0.8-4.3-0.9l-3.5-0.2l-0.2-3.5c-0.2-3.1-0.4-3.7-1.5-4.8c-1.1-1.1-1.7-1.3-4.7-1.4l-3.5-0.2v-4.8v-4.8h33.8c37.1,0,39-0.1,46.9-2.7c28.9-9.7,44-40.1,34.3-69.1c-4.6-13.8-16.7-26.6-30.3-32.2c-4.8-1.9-10.1-3.3-14.2-3.7l-3.1-0.3l-0.5-2.1c-3.1-12.7-9.4-24.3-18.4-33.8c-12.8-13.5-28.3-21-47.1-22.9C124.1,19.6,121.8,19.6,116,20.1z M137.5,31.3c9.1,2.3,16.6,5.8,23.7,11.2c12.8,9.6,21.6,23.7,24.6,39.3c0.4,2.1,0.9,4.2,1.2,4.7c0.8,1.6,2.8,2.2,7.8,2.4c29.9,1.6,49.4,32.7,37.9,60.7c-2.4,5.7-4.8,9.3-9.8,14.3c-7.9,7.9-15.7,11.7-26.6,12.9c-3.1,0.4-26.2,0.5-75.9,0.4c-67.9-0.1-71.6-0.2-74.4-1c-12.9-3.7-22.2-13.1-25.2-25.5c-1-4.1-1-11.8,0-15.9c3-12.1,12.4-21.9,24.3-25.3c1.8-0.5,5.3-1.1,7.8-1.2c4-0.3,4.5-0.4,5.6-1.6l1.3-1.2l-0.3-8.3c-0.3-9.1,0.1-13.3,2-20.4c5.7-21.3,23-38.8,44.2-44.8c6.8-1.9,10.1-2.3,18.9-2.1C131.5,30.1,133.6,30.3,137.5,31.3z M128,210c0,3.1,0.1,3.4,1.6,4.8c1.5,1.5,1.8,1.6,4.8,1.6h3.3v4.8v4.8H123h-14.7v-4.8v-4.8h3c5.2,0,7.1-1.9,7.1-7.1v-2.5h4.8h4.8L128,210L128,210z"/></g></g></g>
</svg>