<!--?xml version="1.0" encoding="utf-8"?-->
<!-- Svg Vector Icons : http://www.onlinewebfonts.com/icon -->

<svg version="1.1" xmlns="http://www.w3.org/2000/svg" xmlns:xlink="http://www.w3.org/1999/xlink" x="0px" y="0px" viewBox="0 0 256 256" enable-background="new 0 0 256 256" xml:space="preserve">
<metadata> Svg Vector Icons : http://www.onlinewebfonts.com/icon </metadata>
<g><g><g><path fill="#ffffff" data-title="Layer 0" xs="0" d="M31.1,49.3c-2.5,0.7-5.1,2.9-6.3,5.3c-0.6,1.5-0.7,7.9-0.9,69.7l-0.1,68.1h-6.9H10v2.7v2.6l6,4.7l6,4.7H128h105.9l6-4.7l6-4.7v-2.6v-2.7h-6.9h-6.9v-66.8c0-47.3-0.1-67.5-0.5-69.2c-0.7-3.3-3.4-6.1-6.5-7.1c-2-0.6-14.1-0.7-97.1-0.6C52.1,48.7,32.8,48.9,31.1,49.3z M224,56.9c0.5,0.5,0.6,13.3,0.6,68v67.4l-37.6,0.1l-37.6,0.1l-0.8,1.6c-0.5,0.9-1.7,2.1-2.5,2.7c-1.6,1-1.9,1-18,1c-15.6,0-16.5,0-18-0.9c-0.9-0.6-2-1.8-2.5-2.7l-0.9-1.7H69.2H31.8l-0.2-1.5c-0.4-1.9-0.4-131.1,0-132.8c0.1-0.7,0.7-1.5,1.2-1.7c0.6-0.2,42.6-0.4,95.8-0.3C205.6,56.3,223.5,56.4,224,56.9z"/><path fill="#ffffff" data-title="Layer 1" xs="1" d="M124.6,121.7c-6,17.9-10.9,32.6-10.9,32.7c0,0.1,1.7,0.3,3.8,0.3h3.8l10.8-32.2c5.9-17.7,10.9-32.4,11-32.7c0.1-0.4-0.8-0.6-3.7-0.6h-3.9L124.6,121.7z"/><path fill="#ffffff" data-title="Layer 2" xs="2" d="M85.7,113.6L64.3,124l0.1,3.2l0.1,3.2l21.2,10.3c11.6,5.7,21.3,10.3,21.3,10.3c0.1,0,0.1-1.8,0-4l-0.1-4l-16.7-7.8c-9.2-4.3-16.5-8-16.4-8.2c0.2-0.2,7.7-3.8,16.7-8l16.4-7.6l0.1-2.1c0.1-1.2,0.1-3,0-4.1l-0.1-2L85.7,113.6z"/><path fill="#ffffff" data-title="Layer 3" xs="3" d="M148.7,107.2v4l16.8,7.8c9.3,4.3,17,7.9,17.1,8.1c0.1,0.1-7.4,3.8-16.7,8.1l-16.9,7.8l-0.1,4c-0.1,2.4,0,4,0.3,3.9c0.2,0,9.9-4.7,21.4-10.3l21.1-10.1l-0.1-3.5l-0.1-3.4l-21.3-10.3l-21.3-10.2L148.7,107.2L148.7,107.2z"/></g></g></g>
</svg>