<!--?xml version="1.0" encoding="utf-8"?-->
<!-- Svg Vector Icons : http://www.onlinewebfonts.com/icon -->

<svg version="1.1" xmlns="http://www.w3.org/2000/svg" xmlns:xlink="http://www.w3.org/1999/xlink" x="0px" y="0px" viewBox="0 0 256 256" enable-background="new 0 0 256 256" xml:space="preserve">
<metadata> Svg Vector Icons : http://www.onlinewebfonts.com/icon </metadata>
<g><g><path fill="#ffffff" data-title="Layer 0" xs="0" d="M69,54.4V32.1C69,19.9,59.1,10,46.9,10s-22.1,9.9-22.1,22.1v22.3C15.9,61.2,10,71.7,10,83.8c0,12,5.9,22.6,14.8,29.3v110.8c0,12.2,9.9,22.1,22.1,22.1S69,236,69,223.8V113.1c8.9-6.7,14.8-17.3,14.8-29.3S77.9,61.2,69,54.4z M39.5,32.1c0-4.1,3.3-7.4,7.4-7.4s7.4,3.3,7.4,7.4v15.5c-2.4-0.5-4.8-0.7-7.4-0.7c-2.5,0-5,0.3-7.4,0.7V32.1z M54.3,223.8c0,4.1-3.3,7.4-7.4,7.4s-7.4-3.3-7.4-7.4v-104c2.4,0.5,4.8,0.7,7.4,0.7c2.5,0,5-0.3,7.4-0.7V223.8z M68,89.9c-0.1,0.4-0.2,0.8-0.4,1.2c-0.7,2-1.6,3.8-2.8,5.4c0,0-0.1,0.1-0.1,0.1c-1.3,1.8-2.8,3.3-4.6,4.6c0,0,0,0-0.1,0c-1.8,1.3-3.8,2.4-5.9,3.2c-2.3,0.8-4.8,1.4-7.4,1.4s-5.1-0.5-7.4-1.4c-2.1-0.7-4.1-1.8-5.9-3.2c0,0,0,0-0.1,0c-1.7-1.3-3.3-2.9-4.6-4.6c0,0-0.1-0.1-0.1-0.1c-1.2-1.6-2.1-3.5-2.8-5.4c-0.1-0.4-0.2-0.8-0.4-1.2c-0.6-2-1-4-1-6.2s0.4-4.2,1-6.2c0.1-0.4,0.2-0.8,0.4-1.2c0.7-2,1.6-3.8,2.8-5.4c0,0,0.1-0.1,0.1-0.1c1.3-1.7,2.8-3.3,4.6-4.6c0,0,0,0,0.1,0c1.8-1.3,3.8-2.4,5.9-3.2c2.3-0.8,4.8-1.3,7.4-1.3s5.1,0.5,7.4,1.3c2.1,0.8,4.1,1.9,5.9,3.2c0,0,0,0,0.1,0c1.7,1.3,3.3,2.9,4.6,4.6c0,0,0.1,0.1,0.1,0.1c1.2,1.6,2.1,3.5,2.8,5.4c0.1,0.4,0.2,0.8,0.4,1.2c0.6,2,1,4,1,6.2C69,85.9,68.6,88,68,89.9z"/><path fill="#ffffff" data-title="Layer 1" xs="1" d="M231.2,54.4V32.1c0-12.2-9.9-22.1-22.1-22.1c-12.2,0-22.1,9.9-22.1,22.1v22.3c-8.9,6.7-14.8,17.3-14.8,29.3c0,12,5.9,22.6,14.8,29.3v110.8c0,12.2,9.9,22.1,22.1,22.1c12.2,0,22.1-9.9,22.1-22.1V113.1c8.9-6.7,14.8-17.3,14.8-29.3S240.1,61.2,231.2,54.4z M201.7,32.1c0-4.1,3.3-7.4,7.4-7.4c4.1,0,7.4,3.3,7.4,7.4v15.5c-2.4-0.5-4.9-0.7-7.4-0.7c-2.5,0-5,0.3-7.4,0.7V32.1z M216.5,223.8c0,4.1-3.3,7.4-7.4,7.4c-4.1,0-7.4-3.3-7.4-7.4v-104c2.4,0.5,4.8,0.7,7.4,0.7c2.5,0,5-0.3,7.4-0.7V223.8z M230.2,89.9c-0.1,0.4-0.2,0.8-0.4,1.2c-0.7,2-1.6,3.8-2.8,5.4c0,0-0.1,0.1-0.1,0.1c-1.3,1.8-2.8,3.3-4.5,4.6c0,0,0,0-0.1,0c-1.8,1.3-3.8,2.4-5.9,3.2c-2.3,0.8-4.8,1.4-7.4,1.4c-2.6,0-5.1-0.5-7.4-1.4c-2.1-0.7-4.1-1.8-5.9-3.2c0,0,0,0-0.1,0c-1.7-1.3-3.3-2.9-4.5-4.6c0,0-0.1-0.1-0.1-0.1c-1.2-1.6-2.1-3.5-2.8-5.4c-0.1-0.4-0.2-0.8-0.4-1.2c-0.6-2-1-4-1-6.2s0.4-4.2,1-6.2c0.1-0.4,0.2-0.8,0.4-1.2c0.7-2,1.6-3.8,2.8-5.4c0,0,0.1-0.1,0.1-0.1c1.3-1.7,2.8-3.3,4.5-4.6c0,0,0,0,0.1,0c1.8-1.3,3.8-2.4,5.9-3.2c2.3-0.8,4.8-1.3,7.4-1.3c2.6,0,5.1,0.5,7.4,1.3c2.1,0.8,4.1,1.9,5.9,3.2c0,0,0,0,0.1,0c1.7,1.3,3.3,2.9,4.5,4.6c0,0,0.1,0.1,0.1,0.1c1.2,1.7,2.1,3.5,2.8,5.4c0.1,0.4,0.2,0.8,0.4,1.2c0.6,2,1,4,1,6.2C231.2,85.9,230.8,88,230.2,89.9z"/><path fill="#ffffff" data-title="Layer 2" xs="2" d="M150.1,142.9V32.1c0-12.2-9.9-22.1-22.1-22.1c-12.2,0-22.1,9.9-22.1,22.1v110.8c-8.9,6.7-14.8,17.3-14.8,29.3c0,12,5.9,22.6,14.8,29.3v22.3c0,12.2,9.9,22.1,22.1,22.1c12.2,0,22.1-9.9,22.1-22.1v-22.3c8.9-6.7,14.8-17.3,14.8-29.3C164.9,160.2,159,149.6,150.1,142.9z M120.6,32.1c0-4.1,3.3-7.4,7.4-7.4c4.1,0,7.4,3.3,7.4,7.4v104c-2.4-0.5-4.9-0.7-7.4-0.7c-2.5,0-5,0.3-7.4,0.7V32.1z M135.4,223.8c0,4.1-3.3,7.4-7.4,7.4c-4.1,0-7.4-3.3-7.4-7.4v-15.5c2.4,0.5,4.8,0.7,7.4,0.7c2.5,0,5-0.3,7.4-0.7V223.8z M149.1,178.4c-0.1,0.4-0.2,0.8-0.4,1.2c-0.7,2-1.6,3.8-2.8,5.4c0,0-0.1,0.1-0.1,0.1c-1.3,1.8-2.8,3.3-4.5,4.6c0,0,0,0-0.1,0c-1.8,1.3-3.8,2.4-5.9,3.2c-2.3,0.8-4.8,1.4-7.4,1.4c-2.6,0-5.1-0.5-7.4-1.4c-2.1-0.7-4.1-1.8-5.9-3.2c0,0,0,0-0.1,0c-1.7-1.3-3.3-2.9-4.6-4.6c0,0-0.1-0.1-0.1-0.1c-1.2-1.6-2.1-3.5-2.8-5.4c-0.1-0.4-0.2-0.8-0.4-1.2c-0.6-2-1-4-1-6.2c0-2.2,0.4-4.2,1-6.2c0.1-0.4,0.2-0.8,0.4-1.2c0.7-2,1.6-3.8,2.8-5.4c0,0,0.1-0.1,0.1-0.1c1.3-1.7,2.8-3.3,4.6-4.6c0,0,0,0,0.1,0c1.8-1.3,3.8-2.4,5.9-3.2c2.3-0.8,4.8-1.3,7.4-1.3c2.6,0,5.1,0.5,7.4,1.3c2.1,0.8,4.1,1.9,5.9,3.2c0,0,0,0,0.1,0c1.7,1.3,3.2,2.9,4.5,4.6c0,0,0.1,0.1,0.1,0.1c1.2,1.7,2.1,3.5,2.8,5.4c0.1,0.4,0.2,0.8,0.4,1.2c0.6,2,1,4,1,6.2C150.1,174.4,149.7,176.5,149.1,178.4z"/></g></g>
</svg>