<!--?xml version="1.0" encoding="utf-8"?-->
<!-- Svg Vector Icons : http://www.onlinewebfonts.com/icon -->

<svg version="1.1" xmlns="http://www.w3.org/2000/svg" xmlns:xlink="http://www.w3.org/1999/xlink" x="0px" y="0px" viewBox="0 0 256 256" enable-background="new 0 0 256 256" xml:space="preserve">
<metadata> Svg Vector Icons : http://www.onlinewebfonts.com/icon </metadata>
<g><g><g><path fill="#ffffff" data-title="Layer 0" xs="0" d="M196.9,137.8V39.5H128v174.7c12.2-6.5,23.1-13.5,32.7-21C184.8,174.3,196.9,155.9,196.9,137.8z M226.4,19.8v118c0,8.8-1.7,17.5-5.2,26.2c-3.4,8.6-7.7,16.3-12.8,23c-5.1,6.7-11.1,13.2-18.1,19.6c-7,6.4-13.5,11.6-19.4,15.8c-6,4.2-12.1,8.2-18.6,11.9c-6.5,3.7-11,6.3-13.8,7.6c-2.7,1.3-4.9,2.4-6.5,3.1c-1.2,0.6-2.6,0.9-4,0.9c-1.4,0-2.8-0.3-4-0.9c-1.6-0.7-3.8-1.7-6.5-3.1c-2.7-1.3-7.3-3.9-13.8-7.6c-6.5-3.7-12.6-7.7-18.6-11.9c-5.9-4.2-12.4-9.5-19.4-15.8c-7-6.4-13.1-12.9-18.1-19.6c-5.1-6.7-9.3-14.4-12.8-23c-3.4-8.6-5.2-17.4-5.2-26.2v-118c0-2.7,1-5,2.9-6.9c2-2,4.3-2.9,6.9-2.9h177c2.7,0,5,1,6.9,2.9C225.4,14.9,226.4,17.2,226.4,19.8z"/></g></g></g>
</svg>