<!--?xml version="1.0" encoding="utf-8"?-->
<!-- Svg Vector Icons : http://www.onlinewebfonts.com/icon -->

<svg version="1.1" xmlns="http://www.w3.org/2000/svg" xmlns:xlink="http://www.w3.org/1999/xlink" x="0px" y="0px" viewBox="0 0 256 256" enable-background="new 0 0 256 256" xml:space="preserve">
<metadata> Svg Vector Icons : http://www.onlinewebfonts.com/icon </metadata>
<g><g><g><path fill="#ffffff" data-title="Layer 0" xs="0" d="M119.6,10.1c-0.9,0.1-3.6,0.4-6,0.6c-14.5,1.6-30.8,7-43.8,14.4C63,29,55,34.7,54,36.4c-1.7,2.8-0.6,6.5,2.3,7.9c2.3,1.1,4,0.6,8.4-2.7c13.7-10.1,30-16.8,47.5-19.6c7.4-1.2,24-1.2,31.1,0c17.1,2.8,31.4,8.4,45,17.7c5.9,4,8.1,5.9,14,11.6c17.4,16.8,27.5,36.5,31.5,61.1c1.2,7.2,1.2,23.7,0,31.1c-2.8,17.4-9.5,33.8-19.5,47.3c-3.2,4.3-3.7,5.6-3,7.8c1.1,3.4,4.7,4.9,7.8,3.3c2.6-1.3,9.8-12.4,15-23c16.1-32.9,15.5-72.1-1.6-105.3c-5.9-11.4-12-19.6-21.7-29.3c-18.1-18.1-40.6-29.5-65.7-33.3C139.5,10.3,123.6,9.6,119.6,10.1z"/><path fill="#ffffff" data-title="Layer 1" xs="1" d="M112.9,42.5c-22.8,1.1-42.7,16.2-49.8,37.5c-1.8,5.4-3,12.3-3,16.8c0,2.4,0.2,2.9,1.3,4.1c1.8,1.8,4.5,1.8,6.3,0.3c1.2-1,1.3-1.5,1.6-5.7c0.5-6.4,1.9-12,4.3-17.2c2.6-5.5,5.2-9.1,9.7-13.5c8.1-7.8,16.8-11.8,28.5-13c6.7-0.6,7.9-1.3,7.9-4.7C119.8,43.6,117.8,42.2,112.9,42.5z"/><path fill="#ffffff" data-title="Layer 2" xs="2" d="M36.5,53.9c-2.4,1.3-9.5,12-14.2,21.3c-5.9,11.8-9.4,23-11.4,36.9c-1.2,8.4-1.2,24.7,0.2,33.2c2,12.6,5.3,23.1,10.9,34.6c6,12.3,12.4,21.2,22.4,31.2c9.7,9.7,18,15.8,29.3,21.7c33,17,71.9,17.7,104.8,1.8c10.7-5.2,22.1-12.6,23.5-15.3c1.5-3,0-6.7-3.1-7.7c-2.3-0.8-3.7-0.3-7.9,2.8c-13.6,10-30,16.8-47.4,19.5c-7.4,1.2-24,1.2-31.1,0c-17.1-2.8-30.7-8.1-44.3-17.3c-6.4-4.3-8.5-6-14.7-12.1c-17.4-16.8-27.5-36.7-31.5-61.1c-1.2-7.2-1.2-23.8,0-31.1c2.8-17.4,9.5-33.8,19.6-47.5c2.6-3.5,2.9-4.2,2.9-6c0-2.4-0.8-3.8-2.8-4.8C40,53,38.1,53,36.5,53.9z"/><path fill="#ffffff" data-title="Layer 3" xs="3" d="M110.3,62.4c-4,0.6-9.5,2.6-13.1,4.7c-3.8,2.3-10,8.3-12.2,12C81.8,84.7,80,91,79.9,96.5c0,2.6,0.1,3.1,1.3,4.3c1.5,1.4,3.9,1.8,5.7,0.8c1.2-0.6,2.2-3.1,2.2-5.6c0-8.2,6.3-17.8,14.3-21.7c3.6-1.7,8.5-3,11.8-3c4.2,0,6.3-4.4,3.6-7.4c-1.1-1.2-1.7-1.5-3.6-1.6C113.9,62.1,111.7,62.2,110.3,62.4z"/><path fill="#ffffff" data-title="Layer 4" xs="4" d="M157.5,70c-1.9,1.1-2.3,2.4-2.4,8.4v5.6l-21.8,0.1l-21.8,0.1l-2.6,1.3c-3.1,1.5-6.6,5-7.9,8.1l-1,2.2v48.2v48.2l1.3,2.6c1.5,3.1,5,6.6,8.1,7.9c2.2,1,2.4,1,30.1,1c27.7,0,27.9,0,30.1-1c3-1.4,6.6-4.8,8.1-7.9l1.3-2.6v-48.2V95.9l-1-2.1c-2.1-4.4-6.6-8.2-11.1-9.2l-2.5-0.6v-5.4c0-3.2-0.2-6-0.6-6.6C162.8,69.7,159.8,68.8,157.5,70z M166.6,94.3c0.8,0.5,1.9,1.6,2.4,2.4c0.9,1.5,0.9,2.4,0.9,47.4c0,45,0,46-0.9,47.4c-0.5,0.8-1.6,1.9-2.4,2.4c-1.5,0.9-2.4,0.9-27.1,0.9c-24.7,0-25.7,0-27.1-0.9c-0.8-0.5-1.9-1.6-2.4-2.4c-0.9-1.5-0.9-2.4-0.9-47.4c0-45,0-46,0.9-47.4c0.5-0.8,1.6-1.9,2.4-2.4c1.5-0.9,2.4-0.9,27.1-0.9C164.2,93.4,165.1,93.4,166.6,94.3z"/><path fill="#ffffff" data-title="Layer 5" xs="5" d="M119.1,120.1v16.6h20.3h20.3v-16.6v-16.6h-20.3h-20.3V120.1z"/><path fill="#ffffff" data-title="Layer 6" xs="6" d="M122.6,148.2c-2.1,0.9-3.2,2.8-3.2,5.2c0,1.9,0.2,2.4,1.5,3.7c1.3,1.3,1.8,1.5,3.8,1.5s2.5-0.2,3.8-1.5c1.3-1.3,1.5-1.8,1.5-3.8c0-1.9-0.2-2.5-1.4-3.7C127,148.1,124.3,147.5,122.6,148.2z"/><path fill="#ffffff" data-title="Layer 7" xs="7" d="M137.4,148.2c-2.1,0.9-3.2,2.8-3.2,5.2c0,1.9,0.2,2.4,1.5,3.7c1.3,1.3,1.8,1.5,3.8,1.5s2.5-0.2,3.8-1.5c1.3-1.3,1.5-1.8,1.5-3.8c0-1.9-0.2-2.5-1.4-3.7C141.8,148.1,139.1,147.5,137.4,148.2z"/><path fill="#ffffff" data-title="Layer 8" xs="8" d="M152.1,148.2c-2.1,0.9-3.2,2.8-3.2,5.2c0,1.9,0.2,2.4,1.5,3.7c1.3,1.3,1.8,1.5,3.8,1.5s2.5-0.2,3.8-1.5c1.3-1.3,1.5-1.8,1.5-3.8c0-1.9-0.2-2.5-1.4-3.7C156.6,148.1,153.8,147.5,152.1,148.2z"/><path fill="#ffffff" data-title="Layer 9" xs="9" d="M122.6,163c-2.1,0.9-3.2,2.8-3.2,5.2c0,1.9,0.2,2.4,1.5,3.7c1.3,1.3,1.8,1.5,3.8,1.5s2.5-0.2,3.8-1.5c1.3-1.3,1.5-1.8,1.5-3.8c0-1.9-0.2-2.5-1.4-3.7C127,162.9,124.3,162.3,122.6,163z"/><path fill="#ffffff" data-title="Layer 10" xs="10" d="M137.4,163c-2.1,0.9-3.2,2.8-3.2,5.2c0,1.9,0.2,2.4,1.5,3.7c1.3,1.3,1.8,1.5,3.8,1.5s2.5-0.2,3.8-1.5c1.3-1.3,1.5-1.8,1.5-3.8c0-1.9-0.2-2.5-1.4-3.7C141.8,162.9,139.1,162.3,137.4,163z"/><path fill="#ffffff" data-title="Layer 11" xs="11" d="M152.1,163c-2.1,0.9-3.2,2.8-3.2,5.2c0,1.9,0.2,2.4,1.5,3.7c1.3,1.3,1.8,1.5,3.8,1.5s2.5-0.2,3.8-1.5c1.3-1.3,1.5-1.8,1.5-3.8c0-1.9-0.2-2.5-1.4-3.7C156.6,162.9,153.8,162.3,152.1,163z"/><path fill="#ffffff" data-title="Layer 12" xs="12" d="M122.6,177.8c-2.1,0.9-3.2,2.8-3.2,5.2c0,1.9,0.2,2.4,1.5,3.7c1.3,1.3,1.8,1.5,3.8,1.5s2.5-0.2,3.8-1.5c1.3-1.3,1.5-1.8,1.5-3.8c0-1.9-0.2-2.5-1.4-3.7C127,177.6,124.3,177,122.6,177.8z"/><path fill="#ffffff" data-title="Layer 13" xs="13" d="M137.4,177.8c-2.1,0.9-3.2,2.8-3.2,5.2c0,1.9,0.2,2.4,1.5,3.7c1.3,1.3,1.8,1.5,3.8,1.5s2.5-0.2,3.8-1.5c1.3-1.3,1.5-1.8,1.5-3.8c0-1.9-0.2-2.5-1.4-3.7C141.8,177.6,139.1,177,137.4,177.8z"/><path fill="#ffffff" data-title="Layer 14" xs="14" d="M152.1,177.8c-2.1,0.9-3.2,2.8-3.2,5.2c0,1.9,0.2,2.4,1.5,3.7c1.3,1.3,1.8,1.5,3.8,1.5s2.5-0.2,3.8-1.5c1.3-1.3,1.5-1.8,1.5-3.8c0-1.9-0.2-2.5-1.4-3.7C156.6,177.6,153.8,177,152.1,177.8z"/></g></g></g>
</svg>